# This file uses centimeters as units for non-parametric coordinates.

mtllib pillars.mtl
g default
v -2.423572 0.035437 -0.376597
v -2.789752 0.035437 -0.376597
v -2.972843 0.035437 -0.065892
v -2.789752 0.035437 0.244812
v -2.423572 0.035437 0.244812
v -2.240481 0.035437 -0.065892
v -2.423572 0.393373 -0.376597
v -2.789752 0.393373 -0.376597
v -2.972843 0.393373 -0.065892
v -2.789752 0.393373 0.244812
v -2.423572 0.393373 0.244812
v -2.240481 0.393373 -0.065892
v -2.606662 0.035437 -0.065892
v -2.606662 0.393373 -0.065892
v -1.170301 0.035437 -0.376597
v -1.506011 0.035437 -0.376597
v -1.673866 0.035437 -0.065892
v -1.506011 0.035437 0.244812
v -1.170301 0.035437 0.244812
v -1.002446 0.035437 -0.065892
v -1.170301 0.547042 -0.376597
v -1.506011 0.547042 -0.376597
v -1.673866 0.547042 -0.065892
v -1.506011 0.547042 0.244812
v -1.170301 0.547042 0.244812
v -1.002446 0.547042 -0.065892
v -1.338156 0.035437 -0.065892
v -1.338156 0.547042 -0.065892
v -0.336606 0.062487 0.321250
v 0.245434 0.062487 0.321250
v -0.336606 0.667022 0.321250
v 0.245434 0.667022 0.321250
v -0.336606 0.667022 -0.321250
v 0.245434 0.667022 -0.321250
v -0.336606 0.062487 -0.321250
v 0.245434 0.062487 -0.321250
v 0.927241 0.069772 0.351612
v 1.509281 0.069772 0.351612
v 0.927241 0.837124 0.351612
v 1.509281 0.837124 0.351612
v 0.927241 0.837124 -0.351612
v 1.509281 0.837124 -0.351612
v 0.927241 0.069772 -0.351612
v 1.509281 0.069772 -0.351612
v 2.124531 0.080248 0.321250
v 2.739152 0.080248 0.321250
v 2.124531 1.081748 0.321250
v 2.739152 1.081748 0.321250
v 2.124531 1.081748 -0.321250
v 2.739152 1.081748 -0.321250
v 2.124531 0.080248 -0.321250
v 2.739152 0.080248 -0.321250
vt 0.578125 0.020934
vt 0.421875 0.020934
vt 0.343750 0.156250
vt 0.421875 0.291566
vt 0.578125 0.291566
vt 0.656250 0.156250
vt 0.375000 0.312500
vt 0.416667 0.312500
vt 0.458333 0.312500
vt 0.500000 0.312500
vt 0.541667 0.312500
vt 0.583333 0.312500
vt 0.625000 0.312500
vt 0.375000 0.688440
vt 0.416667 0.688440
vt 0.458333 0.688440
vt 0.500000 0.688440
vt 0.541667 0.688440
vt 0.583333 0.688440
vt 0.625000 0.688440
vt 0.578125 0.708434
vt 0.421875 0.708434
vt 0.343750 0.843750
vt 0.421875 0.979066
vt 0.578125 0.979066
vt 0.656250 0.843750
vt 0.500000 0.150000
vt 0.500000 0.837500
vt 0.375000 0.312500
vt 0.416667 0.312500
vt 0.416667 0.688440
vt 0.375000 0.688440
vt 0.458333 0.312500
vt 0.458333 0.688440
vt 0.500000 0.312500
vt 0.500000 0.688440
vt 0.541667 0.312500
vt 0.541667 0.688440
vt 0.583333 0.312500
vt 0.583333 0.688440
vt 0.625000 0.312500
vt 0.625000 0.688440
vt 0.421875 0.020934
vt 0.578125 0.020934
vt 0.500000 0.150000
vt 0.343750 0.156250
vt 0.421875 0.291566
vt 0.578125 0.291566
vt 0.656250 0.156250
vt 0.578125 0.979066
vt 0.421875 0.979066
vt 0.500000 0.837500
vt 0.343750 0.843750
vt 0.421875 0.708434
vt 0.578125 0.708434
vt 0.656250 0.843750
vt 0.375000 0.000000
vt 0.625000 0.000000
vt 0.625000 0.250000
vt 0.375000 0.250000
vt 0.625000 0.500000
vt 0.375000 0.500000
vt 0.625000 0.750000
vt 0.375000 0.750000
vt 0.625000 1.000000
vt 0.375000 1.000000
vt 0.875000 0.000000
vt 0.875000 0.250000
vt 0.125000 0.000000
vt 0.125000 0.250000
vt 0.375000 0.000000
vt 0.625000 0.000000
vt 0.625000 0.250000
vt 0.375000 0.250000
vt 0.625000 0.500000
vt 0.375000 0.500000
vt 0.625000 0.750000
vt 0.375000 0.750000
vt 0.625000 1.000000
vt 0.375000 1.000000
vt 0.875000 0.000000
vt 0.875000 0.250000
vt 0.125000 0.000000
vt 0.125000 0.250000
vt 0.375000 0.000000
vt 0.625000 0.000000
vt 0.625000 0.250000
vt 0.375000 0.250000
vt 0.625000 0.500000
vt 0.375000 0.500000
vt 0.625000 0.750000
vt 0.375000 0.750000
vt 0.625000 1.000000
vt 0.375000 1.000000
vt 0.875000 0.000000
vt 0.875000 0.250000
vt 0.125000 0.000000
vt 0.125000 0.250000
vn 0.000000 0.000000 -1.000000
vn 0.000000 0.000000 -1.000000
vn 0.000000 0.000000 -1.000000
vn 0.000000 0.000000 -1.000000
vn -0.861543 0.000000 -0.507685
vn -0.861543 0.000000 -0.507685
vn -0.861543 0.000000 -0.507685
vn -0.861543 0.000000 -0.507685
vn -0.861543 0.000000 0.507685
vn -0.861543 0.000000 0.507685
vn -0.861543 0.000000 0.507685
vn -0.861543 0.000000 0.507685
vn -0.000000 0.000000 1.000000
vn -0.000000 0.000000 1.000000
vn -0.000000 0.000000 1.000000
vn -0.000000 0.000000 1.000000
vn 0.861543 0.000000 0.507685
vn 0.861543 0.000000 0.507685
vn 0.861543 0.000000 0.507685
vn 0.861543 0.000000 0.507685
vn 0.861543 0.000000 -0.507685
vn 0.861543 0.000000 -0.507685
vn 0.861543 0.000000 -0.507685
vn 0.861543 0.000000 -0.507685
vn 0.000000 -1.000000 0.000000
vn 0.000000 -1.000000 0.000000
vn 0.000000 -1.000000 0.000000
vn 0.000000 -1.000000 0.000000
vn 0.000000 -1.000000 0.000000
vn 0.000000 -1.000000 0.000000
vn 0.000000 -1.000000 0.000000
vn 0.000000 1.000000 0.000000
vn 0.000000 1.000000 0.000000
vn 0.000000 1.000000 0.000000
vn 0.000000 1.000000 0.000000
vn 0.000000 1.000000 0.000000
vn 0.000000 1.000000 0.000000
vn 0.000000 1.000000 0.000000
vn 0.000000 0.000000 -1.000000
vn 0.000000 0.000000 -1.000000
vn 0.000000 0.000000 -1.000000
vn 0.000000 0.000000 -1.000000
vn -0.879817 0.000000 -0.475312
vn -0.879817 0.000000 -0.475312
vn -0.879817 0.000000 -0.475312
vn -0.879817 0.000000 -0.475312
vn -0.879818 0.000000 0.475312
vn -0.879818 0.000000 0.475312
vn -0.879818 0.000000 0.475312
vn -0.879818 0.000000 0.475312
vn -0.000000 0.000000 1.000000
vn -0.000000 0.000000 1.000000
vn -0.000000 0.000000 1.000000
vn -0.000000 0.000000 1.000000
vn 0.879817 0.000000 0.475312
vn 0.879817 0.000000 0.475312
vn 0.879817 0.000000 0.475312
vn 0.879817 0.000000 0.475312
vn 0.879817 0.000000 -0.475312
vn 0.879817 0.000000 -0.475312
vn 0.879817 0.000000 -0.475312
vn 0.879817 0.000000 -0.475312
vn 0.000000 -1.000000 0.000000
vn 0.000000 -1.000000 0.000000
vn 0.000000 -1.000000 0.000000
vn 0.000000 -1.000000 0.000000
vn 0.000000 -1.000000 -0.000000
vn 0.000000 -1.000000 -0.000000
vn 0.000000 -1.000000 -0.000000
vn 0.000000 1.000000 0.000000
vn 0.000000 1.000000 0.000000
vn 0.000000 1.000000 0.000000
vn 0.000000 1.000000 0.000000
vn 0.000000 1.000000 0.000000
vn 0.000000 1.000000 0.000000
vn 0.000000 1.000000 0.000000
vn 0.000000 0.000000 1.000000
vn 0.000000 0.000000 1.000000
vn 0.000000 0.000000 1.000000
vn 0.000000 0.000000 1.000000
vn 0.000000 1.000000 0.000000
vn 0.000000 1.000000 0.000000
vn 0.000000 1.000000 0.000000
vn 0.000000 1.000000 0.000000
vn 0.000000 0.000000 -1.000000
vn 0.000000 0.000000 -1.000000
vn 0.000000 0.000000 -1.000000
vn 0.000000 0.000000 -1.000000
vn 0.000000 -1.000000 0.000000
vn 0.000000 -1.000000 0.000000
vn 0.000000 -1.000000 0.000000
vn 0.000000 -1.000000 0.000000
vn 1.000000 0.000000 0.000000
vn 1.000000 0.000000 0.000000
vn 1.000000 0.000000 0.000000
vn 1.000000 0.000000 0.000000
vn -1.000000 0.000000 0.000000
vn -1.000000 0.000000 0.000000
vn -1.000000 0.000000 0.000000
vn -1.000000 0.000000 0.000000
vn 0.000000 0.000000 1.000000
vn 0.000000 0.000000 1.000000
vn 0.000000 0.000000 1.000000
vn 0.000000 0.000000 1.000000
vn 0.000000 1.000000 0.000000
vn 0.000000 1.000000 0.000000
vn 0.000000 1.000000 0.000000
vn 0.000000 1.000000 0.000000
vn 0.000000 0.000000 -1.000000
vn 0.000000 0.000000 -1.000000
vn 0.000000 0.000000 -1.000000
vn 0.000000 0.000000 -1.000000
vn 0.000000 -1.000000 0.000000
vn 0.000000 -1.000000 0.000000
vn 0.000000 -1.000000 0.000000
vn 0.000000 -1.000000 0.000000
vn 1.000000 0.000000 0.000000
vn 1.000000 0.000000 0.000000
vn 1.000000 0.000000 0.000000
vn 1.000000 0.000000 0.000000
vn -1.000000 0.000000 0.000000
vn -1.000000 0.000000 0.000000
vn -1.000000 0.000000 0.000000
vn -1.000000 0.000000 0.000000
vn 0.000000 0.000000 1.000000
vn 0.000000 0.000000 1.000000
vn 0.000000 0.000000 1.000000
vn 0.000000 0.000000 1.000000
vn 0.000000 1.000000 0.000000
vn 0.000000 1.000000 0.000000
vn 0.000000 1.000000 0.000000
vn 0.000000 1.000000 0.000000
vn 0.000000 0.000000 -1.000000
vn 0.000000 0.000000 -1.000000
vn 0.000000 0.000000 -1.000000
vn 0.000000 0.000000 -1.000000
vn 0.000000 -1.000000 0.000000
vn 0.000000 -1.000000 0.000000
vn 0.000000 -1.000000 0.000000
vn 0.000000 -1.000000 0.000000
vn 1.000000 0.000000 0.000000
vn 1.000000 0.000000 0.000000
vn 1.000000 0.000000 0.000000
vn 1.000000 0.000000 0.000000
vn -1.000000 0.000000 0.000000
vn -1.000000 0.000000 0.000000
vn -1.000000 0.000000 0.000000
vn -1.000000 0.000000 0.000000
s off
g pCylinder10
usemtl initialShadingGroup
f 1/7/1 2/8/2 8/15/3 7/14/4
f 2/8/5 3/9/6 9/16/7 8/15/8
f 3/9/9 4/10/10 10/17/11 9/16/12
f 4/10/13 5/11/14 11/18/15 10/17/16
f 5/11/17 6/12/18 12/19/19 11/18/20
f 6/12/21 1/13/22 7/20/23 12/19/24
s 1
f 2/2/25 1/1/26 13/27/27
f 3/3/28 2/2/25 13/27/27
f 4/4/29 3/3/28 13/27/27
f 5/5/30 4/4/29 13/27/27
f 6/6/31 5/5/30 13/27/27
f 1/1/26 6/6/31 13/27/27
s 2
f 7/25/32 8/24/33 14/28/34
f 8/24/33 9/23/35 14/28/34
f 9/23/35 10/22/36 14/28/34
f 10/22/36 11/21/37 14/28/34
f 11/21/37 12/26/38 14/28/34
f 12/26/38 7/25/32 14/28/34
s off
f 15/29/39 16/30/40 22/31/41 21/32/42
f 16/30/43 17/33/44 23/34/45 22/31/46
f 17/33/47 18/35/48 24/36/49 23/34/50
f 18/35/51 19/37/52 25/38/53 24/36/54
f 19/37/55 20/39/56 26/40/57 25/38/58
f 20/39/59 15/41/60 21/42/61 26/40/62
s 3
f 16/43/63 15/44/64 27/45/65
f 17/46/66 16/43/63 27/45/65
f 18/47/67 17/46/66 27/45/65
f 19/48/68 18/47/67 27/45/65
f 20/49/69 19/48/68 27/45/65
f 15/44/64 20/49/69 27/45/65
s 4
f 21/50/70 22/51/71 28/52/72
f 22/51/71 23/53/73 28/52/72
f 23/53/73 24/54/74 28/52/72
f 24/54/74 25/55/75 28/52/72
f 25/55/75 26/56/76 28/52/72
f 26/56/76 21/50/70 28/52/72
s off
f 29/57/77 30/58/78 32/59/79 31/60/80
f 31/60/81 32/59/82 34/61/83 33/62/84
f 33/62/85 34/61/86 36/63/87 35/64/88
f 35/64/89 36/63/90 30/65/91 29/66/92
f 30/58/93 36/67/94 34/68/95 32/59/96
f 35/69/97 29/57/98 31/60/99 33/70/100
f 37/71/101 38/72/102 40/73/103 39/74/104
f 39/74/105 40/73/106 42/75/107 41/76/108
f 41/76/109 42/75/110 44/77/111 43/78/112
f 43/78/113 44/77/114 38/79/115 37/80/116
f 38/72/117 44/81/118 42/82/119 40/73/120
f 43/83/121 37/71/122 39/74/123 41/84/124
f 45/85/125 46/86/126 48/87/127 47/88/128
f 47/88/129 48/87/130 50/89/131 49/90/132
f 49/90/133 50/89/134 52/91/135 51/92/136
f 51/92/137 52/91/138 46/93/139 45/94/140
f 46/86/141 52/95/142 50/96/143 48/87/144
f 51/97/145 45/85/146 47/88/147 49/98/148
